# xmcd CD database file
#
# Track frame offsets:
#	150
#	15205
#	28147
#	49897
#	63208
#	76352
#	91001
#	108275
#	123028
#	139868
#	156756
#	169545
#
# Disc length: 2410 seconds
#
# Revision: 4
# Processed by: cddbd v1.5.1PL2 Copyright (c) Steve Scherf et al.
# Submitted via: CDex 1.50
#
DISCID=8409680c
DTITLE=Variados - Country Collection - Volume 7
DYEAR=1997
DGENRE=Country
TTITLE0=Bob Woodruff - I Want You
TTITLE1=Cindy Ray - Mi Vida Loca
TTITLE2=Bellamy Brothers - Big Hair
TTITLE3=Don Cox - Gentelmen Stary Your Engines
TTITLE4=Steve Haggart - One Used Wedding Ring
TTITLE5=Joe Nichols - Six Of One, Half A Dozen (Of The Oher)
TTITLE6=Gretchen Peters - I Ain't Ever Satisfed
TTITLE7=Johnny Danton - She Did It To Me
TTITLE8=Tony Richman - If You Leave Me Now
TTITLE9=Willie And River South - Take It Easy
TTITLE10=Leslie Collins - Live Until I Die
TTITLE11=Peter Hill - Crimson And Clover
EXTD=YEAR: 1997
EXTT0=
EXTT1=
EXTT2=
EXTT3=
EXTT4=
EXTT5=
EXTT6=
EXTT7=
EXTT8=
EXTT9=
EXTT10=
EXTT11=
PLAYORDER=
